<?xml version="1.0" encoding="utf-8"?>
<!-- Generator: Adobe Illustrator 15.1.0, SVG Export Plug-In . SVG Version: 6.00 Build 0)  --> 
<!DOCTYPE svg PUBLIC "-//W3C//DTD SVG 1.1//EN" "http://www.w3.org/Graphics/SVG/1.1/DTD/svg11.dtd">
<svg version="1.1" id="Layer_1" xmlns="http://www.w3.org/2000/svg" xmlns:xlink="http://www.w3.org/1999/xlink" x="0px"
	 y="0px" width="681.422px" height="84.705px" viewBox="0 0 681.422 84.705" enable-background="new 0 0 681.422 84.705"
	 xml:space="preserve">
  <g>
    <g>
      <path fill="#FFFFFF" d="M48.508,38.489c-3.55-2.304-8.777-4.293-15.66-6.02c-6.88-1.727-11.185-3.381-12.887-4.996
			c-1.751-1.608-2.648-3.56-2.648-5.801c0-2.798,1.067-5.191,3.183-7.187c2.128-1.992,4.937-2.974,8.487-2.974
			c2.871,0,5.472,0.754,7.806,2.22c2.357,1.476,4.668,3.809,6.905,7.031l13.226-5.423c-1.7-2.893-3.379-5.157-5.056-6.8
			c-2.578-2.503-5.764-4.544-9.484-6.15C38.638,0.812,34.381,0,29.591,0C21.226,0,14.65,2.235,9.811,6.659
			C5.034,11.096,2.626,16.687,2.626,23.46c0,6.332,2.408,11.633,7.247,15.912c3.84,3.393,10.249,6.274,19.208,8.63
			c6.529,1.754,10.735,3.578,12.619,5.49c1.849,1.879,2.81,4.097,2.81,6.563c0,2.87-1.18,5.313-3.54,7.392
			c-2.357,2.088-5.641,3.15-9.834,3.15c-3.514,0-6.565-0.806-9.105-2.411c-2.616-1.603-5.228-4.475-7.879-8.523L0,65.161
			c1.873,3.563,3.697,6.344,5.52,8.354c2.797,3.135,6.261,5.592,10.309,7.439c4.023,1.834,8.801,2.744,14.31,2.744
			c5.833,0,10.976-1.118,15.477-3.33c4.484-2.188,7.878-5.348,10.139-9.456c2.309-4.101,3.426-8.186,3.426-12.257
			c0-3.84-0.874-7.623-2.638-11.281C54.757,43.727,52.07,40.744,48.508,38.489z M119.798,33.419H89.417V1.588H73.71v80.518h15.707
			V47.325h30.382v34.781h15.829V1.588h-15.853L119.798,33.419z M156.271,82.106h15.743V1.588h-15.743V82.106z M249.794,38.694
			c2.225-3.136,3.345-7.101,3.345-11.917c0-5.203-1.239-9.843-3.745-13.856c-2.443-4.06-5.956-6.959-10.408-8.691
			c-4.473-1.764-12.569-2.642-24.215-2.642h-21.71v80.518h15.851V49.73h14.563l17.848,32.376h17.762l-20.971-35.338
			C243.633,44.53,247.546,41.827,249.794,38.694z M233.421,33.355c-3.283,2.642-7.222,3.95-11.842,3.95h-12.668V15.629h12.668
			c5.251,0,9.08,0.965,11.478,2.983c2.382,1.966,3.56,4.446,3.56,7.412C236.617,29.163,235.547,31.594,233.421,33.355z
			 M571.636,38.694c2.237-3.136,3.331-7.101,3.331-11.917c0-5.203-1.226-9.843-3.721-13.856c-2.451-4.06-5.968-6.959-10.418-8.691
			c-4.46-1.764-12.557-2.642-24.216-2.642h-21.716v80.518h15.841V49.73h14.591l17.82,32.376h17.775l-20.962-35.338
			C565.458,44.53,569.389,41.827,571.636,38.694z M555.246,33.355c-3.256,2.642-7.195,3.95-11.839,3.95h-12.67V15.629h12.67
			c5.263,0,9.095,0.965,11.497,2.983c2.373,1.966,3.557,4.446,3.557,7.412C558.461,29.163,557.385,31.594,555.246,33.355z
			 M318.668,3.814C314.037,1.276,307.932,0,300.357,0c-4.644,0-8.924,0.834-12.86,2.492c-3.964,1.674-7.394,4.068-10.383,7.207
			c-2.967,3.101-5.154,6.476-6.589,10.1c-2.677,6.52-3.99,13.911-3.99,22.129c0,13.637,3.282,24.009,9.848,31.135
			c6.59,7.098,15.211,10.635,25.849,10.635c10.575,0,19.073-3.477,25.48-10.455c6.418-7.003,9.626-17.311,9.626-30.914
			c0-10.057-1.58-18.153-4.786-24.326C329.368,11.827,324.746,7.097,318.668,3.814z M315.603,63.225
			c-3.523,4.291-7.95,6.465-13.275,6.465c-5.579,0-10.215-2.174-13.775-6.511c-3.573-4.294-6.419-11.394-6.419-21.251
			c0-10.045,2.81-17.238,6.333-21.604c3.552-4.366,8.039-6.532,13.435-6.532c5.059,0,9.227,1.727,12.583,5.16
			c4.28,4.469,7.464,12.176,7.464,23.12C321.949,51.872,319.179,58.912,315.603,63.225z M640.664,3.789
			C636.034,1.276,629.92,0,622.344,0c-4.636,0-8.926,0.834-12.859,2.492c-3.955,1.674-7.407,4.068-10.375,7.198
			c-2.942,3.109-5.164,6.485-6.59,10.109c-2.675,6.52-4.008,13.911-4.008,22.105c0,13.66,3.279,24.032,9.868,31.132
			c6.565,7.124,15.185,10.661,25.86,10.661c10.549,0,19.041-3.488,25.447-10.479c6.438-6.979,9.653-17.287,9.653-30.89
			c0-10.057-1.61-18.153-4.79-24.326C651.34,11.827,646.719,7.097,640.664,3.789z M637.586,63.225
			c-3.512,4.291-7.938,6.465-13.259,6.465c-5.598,0-10.188-2.174-13.788-6.511c-3.574-4.305-6.404-11.394-6.404-21.251
			c0-10.045,2.805-17.238,6.332-21.604c3.55-4.366,7.996-6.532,13.433-6.532c5.058,0,9.231,1.727,12.533,5.16
			c4.306,4.469,7.515,12.176,7.515,23.12C643.947,51.872,641.127,58.912,637.586,63.225z M480.102,50.738
			c0,4.262-0.729,7.759-2.188,10.532c-1.444,2.781-3.39,4.766-5.802,6.018c-2.428,1.189-5.199,1.837-8.321,1.837
			c-4.879,0-8.745-1.533-11.585-4.611c-2.846-3.038-4.257-7.632-4.257-13.775V1.588h-15.854v51.905c0,6.086,0.836,10.889,2.529,14.5
			c1.677,3.598,3.793,6.552,6.298,8.876c1.833,1.64,4.109,2.991,6.858,3.987c5.149,1.895,10.724,2.842,16.686,2.842
			c10.336,0,18.191-2.651,23.58-7.947c5.344-5.277,8.044-12.854,8.044-22.674V1.588h-15.987V50.738z M417.167,1.524h-18.613
			l-29.387,38.143V1.732h-15.79v80.374h15.79V40.068l30.589,42.038h19.91l-31.262-42.297L417.167,1.524z M674.209,70.276
			c-3.983,0-7.213,3.232-7.213,7.213c0,3.988,3.229,7.216,7.213,7.216s7.213-3.228,7.213-7.216
			C681.422,73.508,678.192,70.276,674.209,70.276z"/>
    </g>
  </g>
</svg>
