<svg id="Layer_1" data-name="Layer 1" xmlns="http://www.w3.org/2000/svg" viewBox="0 0 298.05 296.3"><defs><style>.cls-1,.cls-5{font-size:42px;font-family:Roboto-Bold, Roboto;font-weight:700;letter-spacing:0em;}.cls-2{letter-spacing:0.01em;}.cls-3{letter-spacing:0em;}.cls-4{letter-spacing:0.01em;}.cls-5{fill:#fff;}</style></defs><title>logo02-blk</title><text class="cls-1" transform="translate(1 245.91)">D<tspan class="cls-2" x="27.24" y="0">AN</tspan><tspan class="cls-3" x="85.91" y="0">N</tspan><tspan class="cls-4" x="115.37" y="0">Y HUYNH</tspan></text><text class="cls-5" transform="translate(0 284.91)">D<tspan class="cls-2" x="27.24" y="0">AN</tspan><tspan class="cls-3" x="85.91" y="0">N</tspan><tspan class="cls-4" x="115.37" y="0">Y HUYNH</tspan></text><polyline points="141.62 0 141.62 55 141.62 139 116.62 139 116.62 80 116.62 54.8 116.62 0 116.62 0 116.62 0"/><path d="M29,64v7" transform="translate(2.62)"/><polyline points="31.62 80 116.62 80 116.62 55 42.62 55"/><path d="M40,55s-11-.06-11,10.47V80l25-7h0L45,62H44L55,72H54L29,80,56,62l1,4H55" transform="translate(2.62)"/><path d="M29,80h0v91s1,14,13,14H54V80" transform="translate(2.62)"/><path d="M54,160" transform="translate(2.62)"/><polygon points="56.62 160.75 56.62 185 181.62 185 181.62 160 57.62 160 56.62 160.75"/><path d="M54,160" transform="translate(2.62)"/><polygon points="156.62 0 156.62 160 181.62 160 181.62 80 181.62 0 156.62 0"/><path d="M239,80H179V55h73s12,2,12,12V185H239Z" transform="translate(2.62)"/><polyline points="141.62 80 90.78 80 90.78 55 141.62 55"/><polygon points="181.62 55 220.28 55 220.28 80 156.62 80 156.62 55 181.62 55"/><polygon points="78.12 160 78.12 185 49.62 185 49.62 160 64.62 160 78.12 160"/><polygon points="56.74 88.67 56.62 72 31.62 72 31.62 88.67 56.74 88.67"/><rect x="149.12" y="160" width="32.5" height="25"/></svg>