<?xml version="1.0" encoding="utf-8"?>
<!-- Generator: Adobe Illustrator 15.1.0, SVG Export Plug-In . SVG Version: 6.00 Build 0)  --> 
<!DOCTYPE svg PUBLIC "-//W3C//DTD SVG 1.1//EN" "http://www.w3.org/Graphics/SVG/1.1/DTD/svg11.dtd">
<svg version="1.1" id="Layer_1" xmlns="http://www.w3.org/2000/svg" xmlns:xlink="http://www.w3.org/1999/xlink" x="0px"
	 y="0px" width="70.333px" height="59.092px" viewBox="0 0 70.333 59.092" enable-background="new 0 0 70.333 59.092"
	 xml:space="preserve">
  <g>
    <g>
      <path d="M51.407,4.95c0-0.017-0.007-0.032-0.018-0.044l-4.891-4.889c-0.023-0.023-0.063-0.023-0.088,0l-7.084,7.086l-4.846-4.846
			c-0.024-0.024-0.064-0.024-0.089,0L29.547,7.1l-7.083-7.083c-0.024-0.023-0.064-0.023-0.089,0l-4.888,4.889
			c-0.012,0.012-0.019,0.027-0.019,0.044c0,0.017,0.006,0.033,0.019,0.044l7.084,7.083l-4.844,4.846
			c-0.024,0.025-0.024,0.064,0,0.089l4.844,4.846l-4.844,4.844c-0.024,0.026-0.024,0.064,0,0.088l4.844,4.845l-7.084,7.083
			c-0.012,0.016-0.019,0.028-0.019,0.047c0,0.016,0.006,0.031,0.019,0.043l4.888,4.89c0.024,0.021,0.064,0.021,0.089,0l7.083-7.085
			l4.846,4.846c0.024,0.025,0.064,0.025,0.089,0l4.845-4.846l7.084,7.085c0.025,0.021,0.064,0.021,0.088,0l4.892-4.89
			c0.011-0.012,0.019-0.027,0.019-0.043c0-0.019-0.008-0.031-0.019-0.047l-7.085-7.083l4.845-4.845c0.022-0.023,0.022-0.062,0-0.088
			l-4.845-4.844l4.845-4.846c0.022-0.024,0.022-0.064,0-0.089l-4.845-4.846l7.085-7.083C51.4,4.982,51.407,4.967,51.407,4.95z
			 M29.547,36.435l-4.799-4.8l4.799-4.8l4.803,4.8L29.547,36.435z M29.547,26.657l-4.799-4.8l4.799-4.801l4.803,4.801L29.547,26.657
			z M29.547,16.877l-4.799-4.8l4.799-4.798l4.803,4.798L29.547,16.877z M39.327,36.435l-4.801-4.8l4.801-4.8l4.799,4.8
			L39.327,36.435z M39.327,26.659l-4.801-4.801l4.801-4.801l4.799,4.801L39.327,26.659z M39.327,16.88l-4.801-4.803l4.801-4.799
			l4.799,4.799L39.327,16.88z M5.006,54.321C4.64,54.084,4.1,53.878,3.39,53.699s-1.155-0.349-1.331-0.515
			c-0.181-0.168-0.273-0.369-0.273-0.6c0-0.289,0.11-0.536,0.328-0.742c0.22-0.205,0.51-0.307,0.876-0.307
			c0.296,0,0.565,0.076,0.806,0.229c0.244,0.152,0.482,0.395,0.713,0.728l1.365-0.562c-0.174-0.298-0.348-0.531-0.521-0.701
			c-0.266-0.258-0.595-0.469-0.979-0.635c-0.386-0.164-0.825-0.246-1.32-0.246c-0.863,0-1.542,0.229-2.042,0.687
			c-0.492,0.459-0.741,1.034-0.741,1.735c0,0.653,0.249,1.201,0.748,1.643c0.396,0.352,1.058,0.648,1.982,0.891
			c0.674,0.182,1.108,0.369,1.302,0.566c0.191,0.195,0.29,0.424,0.29,0.678c0,0.297-0.122,0.549-0.365,0.764
			s-0.582,0.324-1.015,0.324c-0.363,0-0.678-0.082-0.939-0.248c-0.27-0.166-0.54-0.463-0.813-0.881L0,57.074
			c0.193,0.366,0.381,0.653,0.57,0.86c0.289,0.324,0.646,0.578,1.064,0.77c0.415,0.189,0.908,0.283,1.477,0.283
			c0.603,0,1.133-0.115,1.598-0.344c0.463-0.227,0.813-0.553,1.046-0.977c0.238-0.424,0.354-0.846,0.354-1.266
			c0-0.396-0.09-0.787-0.272-1.164C5.652,54.86,5.375,54.554,5.006,54.321z M12.365,53.798H9.229v-3.285H7.608v8.312h1.621v-3.591
			h3.136v3.591h1.634v-8.312h-1.636L12.365,53.798z M16.129,58.823h1.625v-8.313h-1.625V58.823z M25.782,54.342
			c0.23-0.323,0.345-0.731,0.345-1.229c0-0.536-0.128-1.016-0.386-1.43c-0.252-0.418-0.615-0.719-1.074-0.896
			c-0.462-0.182-1.297-0.273-2.5-0.273h-2.241v8.313h1.636v-3.342h1.503l1.842,3.342h1.833l-2.165-3.647
			C25.146,54.944,25.55,54.666,25.782,54.342z M24.092,53.791c-0.339,0.272-0.746,0.408-1.222,0.408h-1.308v-2.238h1.308
			c0.542,0,0.937,0.101,1.185,0.31c0.246,0.203,0.368,0.459,0.368,0.766C24.422,53.358,24.312,53.608,24.092,53.791z M59,54.342
			c0.23-0.323,0.345-0.731,0.345-1.229c0-0.536-0.128-1.016-0.384-1.43c-0.254-0.418-0.616-0.719-1.076-0.896
			c-0.461-0.182-1.297-0.273-2.499-0.273h-2.241v8.313h1.635v-3.342h1.506l1.84,3.342h1.834l-2.162-3.647
			C58.364,54.944,58.769,54.666,59,54.342z M57.309,53.791c-0.336,0.272-0.742,0.408-1.223,0.408H54.78v-2.238h1.309
			c0.543,0,0.938,0.101,1.187,0.31c0.245,0.203,0.367,0.459,0.367,0.766C57.641,53.358,57.53,53.608,57.309,53.791z M32.891,50.742
			c-0.478-0.263-1.108-0.394-1.89-0.394c-0.479,0-0.921,0.086-1.327,0.256c-0.409,0.174-0.763,0.42-1.072,0.744
			c-0.306,0.32-0.532,0.668-0.68,1.043c-0.276,0.672-0.412,1.437-0.412,2.283c0,1.408,0.339,2.479,1.017,3.215
			c0.68,0.731,1.57,1.098,2.668,1.098c1.091,0,1.969-0.358,2.63-1.079c0.663-0.724,0.994-1.787,0.994-3.19
			c0-1.037-0.163-1.874-0.494-2.511C33.996,51.569,33.519,51.081,32.891,50.742z M32.575,56.875c-0.364,0.44-0.82,0.666-1.37,0.666
			c-0.576,0-1.054-0.226-1.422-0.672c-0.369-0.443-0.663-1.177-0.663-2.193c0-1.036,0.29-1.778,0.654-2.229
			c0.367-0.45,0.83-0.675,1.387-0.675c0.522,0,0.952,0.179,1.299,0.533c0.442,0.461,0.771,1.256,0.771,2.387
			C33.23,55.703,32.944,56.431,32.575,56.875z M66.125,50.739c-0.479-0.26-1.108-0.391-1.892-0.391
			c-0.479,0-0.922,0.086-1.327,0.256c-0.408,0.174-0.765,0.42-1.07,0.744c-0.303,0.32-0.533,0.668-0.681,1.043
			c-0.276,0.672-0.413,1.437-0.413,2.281c0,1.41,0.338,2.48,1.02,3.213c0.678,0.735,1.566,1.102,2.668,1.102
			c1.09,0,1.966-0.36,2.627-1.081c0.664-0.722,0.996-1.785,0.996-3.188c0-1.037-0.166-1.874-0.494-2.511
			C67.228,51.569,66.75,51.081,66.125,50.739z M65.808,56.875c-0.362,0.44-0.819,0.666-1.368,0.666
			c-0.578,0-1.052-0.226-1.424-0.672c-0.369-0.443-0.66-1.177-0.66-2.193c0-1.036,0.289-1.778,0.652-2.229
			c0.367-0.45,0.826-0.675,1.387-0.675c0.521,0,0.953,0.179,1.294,0.533c0.444,0.461,0.776,1.256,0.776,2.387
			C66.465,55.703,66.174,56.431,65.808,56.875z M49.553,55.586c0,0.438-0.074,0.802-0.227,1.086
			c-0.148,0.287-0.351,0.492-0.599,0.622c-0.25,0.122-0.537,0.189-0.858,0.189c-0.504,0-0.902-0.158-1.195-0.477
			c-0.295-0.314-0.439-0.788-0.439-1.422v-5.074h-1.637v5.357c0,0.629,0.086,1.125,0.262,1.498c0.174,0.369,0.391,0.676,0.648,0.916
			c0.189,0.168,0.426,0.309,0.709,0.41c0.531,0.194,1.107,0.293,1.723,0.293c1.066,0,1.877-0.273,2.434-0.818
			c0.551-0.545,0.83-1.328,0.83-2.342v-5.314h-1.649L49.553,55.586L49.553,55.586z M43.057,50.506h-1.92l-3.033,3.938v-3.916h-1.631
			v8.296h1.631v-4.339l3.156,4.339h2.056l-3.228-4.366L43.057,50.506z M69.588,57.603c-0.412,0-0.744,0.334-0.744,0.744
			c0,0.411,0.332,0.745,0.744,0.745c0.41,0,0.744-0.334,0.744-0.745C70.333,57.937,70,57.603,69.588,57.603z"/>
    </g>
  </g>
</svg>
